<svg xmlns="http://www.w3.org/2000/svg" xmlns:xlink="http://www.w3.org/1999/xlink" viewBox="0 0 280.09 280.09"><defs><style>.a{fill:url(#a);}.b,.f,.h{fill:none;}.b{stroke:#20558d;stroke-width:14px;}.b,.e,.f,.g,.h{stroke-miterlimit:10;}.c{opacity:0.4;}.d{fill:#215e95;}.e,.g{fill:#fff;}.e,.f,.g,.h{stroke:#fff;}.e,.h{stroke-width:3px;}.f,.g{stroke-width:4px;}.g{fill-rule:evenodd;}</style><radialGradient id="a" cx="140.05" cy="140.05" r="238.38" gradientUnits="userSpaceOnUse"><stop offset="0" stop-color="#0796de"/><stop offset="1" stop-color="#2b578b"/></radialGradient></defs><rect class="a" x="7" y="7" width="266.09" height="266.09" rx="8.03"/><rect class="b" x="7" y="7" width="266.09" height="266.09" rx="12.11"/><g class="c"><rect class="d" x="26.75" y="24.63" width="19.95" height="230.83" rx="1.56"/><rect class="d" x="60.92" y="24.63" width="19.95" height="230.83" rx="1.56"/><rect class="d" x="94.95" y="24.63" width="19.95" height="230.83" rx="1.56"/><rect class="d" x="130.14" y="24.63" width="19.95" height="230.83" rx="1.56"/><rect class="d" x="164.17" y="24.63" width="19.95" height="230.83" rx="1.56"/><rect class="d" x="199.37" y="24.63" width="19.95" height="230.83" rx="1.56"/><rect class="d" x="233.39" y="24.63" width="19.95" height="230.83" rx="1.56"/></g><path class="e" d="M144.9,146.5c-20.72-1.67-39.66,1.86-52.56,8.76,8.69,0,15.86,4.76,16.64,11.36.84,7.34-6.54,14.22-16.48,15.36-7.25.84-13.85-1.57-17.24-5.79l-.06.46a21.37,21.37,0,0,0,2.66,11.78,17.13,17.13,0,0,1,9.79-3.14c6,0,10.9,2.67,10.9,4.9a1.34,1.34,0,0,1-.11.51c-.67,2-6.12,4.38-11.65,4.38a33.07,33.07,0,0,1-7.26-.77c10.15,12.36,33.76,21.15,59.68,23.23,34.78,2.78,64.48-9,69.14-26.82v0a17.58,17.58,0,0,0,.56-3.32C210.48,167.76,181.83,149.45,144.9,146.5Zm46.52,57c-.36,2.67-6.72,3.36-14.21,1.54s-13.24-5.41-12.87-8.07,6.73-3.36,14.2-1.54S191.78,200.8,191.42,203.46Zm10.32-20a11.06,11.06,0,0,1-5.81,7.27c-4.08,2.3-9.79,3.11-15.75,1.86a27,27,0,0,1-5.68-1.86c-7.2-3.27-11.63-9.36-10.41-15.19,1.52-7.22,11.17-11.3,21.57-9.12S203.26,176.2,201.74,183.43Z"/><path class="f" d="M92.5,182c-7.25.84-13.85-1.57-17.24-5.79a10.27,10.27,0,0,1-2.31-5.4c-.87-7.33,6.51-14.2,16.46-15.36a24.58,24.58,0,0,1,2.93-.17c8.69,0,15.86,4.76,16.64,11.36C109.82,174,102.44,180.84,92.5,182Z"/><path class="g" d="M229.27,63.59c-31.12-6.71-55,10.1-73,46.12-.31.6-.61,1.2-.9,1.82q-4.17,8.56-7.92,18.54c-.27.73-.55,1.46-.82,2.2-.62,1.68-1.23,3.4-1.82,5.14s-1.3,3.79-1.93,5.74a9.53,9.53,0,0,0-.21,2.43v.14c0,.32-.12,3.64.52,5.19a.3.3,0,0,0,.55,0c.74-1.53,1.5-3.22,2.28-5,1.11-2.52,2.25-5.27,3.46-8.18.72-1.76,1.47-3.58,2.25-5.43l1-2.37c2.86-6.8,6-14.09,9.7-21.18.3-.59.6-1.17.91-1.75,13-24.66,31.9-46.22,62.3-35.52a.44.44,0,0,1,.11.77c-13.08,7.64-11.19,20.37.09,25.33a4.6,4.6,0,0,0,.61.25,10.49,10.49,0,0,0,5.35.53,9.6,9.6,0,0,0,5.4-2.74C245.88,86.8,245.74,68.1,229.27,63.59Zm1.61,31.59c-5.38,0-9.75-4.91-9.75-11s4.37-11,9.75-11,9.76,4.9,9.76,11S236.27,95.18,230.88,95.18Z"/><path class="g" d="M126.14,147.6c-.18-.76-.38-1.51-.57-2.27-.67-2.54-1.4-5.06-2.18-7.54-.29-.92-.6-1.83-.9-2.74-.19-.59-.4-1.18-.61-1.77-.39-1.1-.79-2.2-1.21-3.29-.23-.61-.46-1.22-.71-1.82C107.44,96.75,84.23,73.61,48.75,80.31a14.55,14.55,0,0,0-5,1.86c-11,6.82-6.15,21.4-.41,23.5,8.75,3.52,17.45-2,17.75-9.71a7.61,7.61,0,0,0-2-5.46,19.34,19.34,0,0,0-5.26-3.83.22.22,0,0,1,0-.41c33.47-9.15,50.32,18.55,62.11,44.33.29.64.57,1.26.85,1.9s.56,1.22.83,1.83l.72,1.64c.33.73.64,1.47,1,2.18,1.1,2.55,2.17,5,3.21,7.41.81,1.86,1.59,3.65,2.37,5.36a.13.13,0,0,0,.23,0l.77-1.53A2.53,2.53,0,0,0,126.14,147.6ZM57,96a8.74,8.74,0,1,1-8.74-8.64A8.69,8.69,0,0,1,57,96Z"/><ellipse class="h" cx="87.31" cy="190.47" rx="10.96" ry="4.57" transform="translate(-9.83 4.82) rotate(-3)"/></svg>